<svg width="12" height="12" viewBox="0 0 12 12" fill="none" xmlns="http://www.w3.org/2000/svg">
<path d="M5.00804 1.77582C5.15661 0.611209 6.84339 0.61121 6.99196 1.77582L7.25973 3.87485C7.31739 4.32678 7.67322 4.68261 8.12515 4.74027L10.2242 5.00804C11.3888 5.15661 11.3888 6.84339 10.2242 6.99196L8.12515 7.25973C7.67322 7.31739 7.31739 7.67322 7.25973 8.12515L6.99196 10.2242C6.84339 11.3888 5.15661 11.3888 5.00804 10.2242L4.74027 8.12515C4.68261 7.67322 4.32678 7.31739 3.87485 7.25973L1.77582 6.99196C0.611209 6.84339 0.61121 5.15661 1.77582 5.00804L3.87485 4.74027C4.32678 4.68261 4.68261 4.32678 4.74027 3.87485L5.00804 1.77582Z" fill="#D9D9D9"/>
</svg>
